<svg width="650" height="371" viewBox="0 0 650 371" fill="none" xmlns="http://www.w3.org/2000/svg">
<g clip-path="url(#clip0_2067_16843)">
<path d="M0 3.05176e-05V370.871H650V3.05176e-05H0Z" fill="white"/>
<path d="M193.149 331.421C193.149 331.421 103.661 250.628 154.057 141.424C178.235 89.0307 242.626 76.7353 262.146 87.4578C287.881 101.595 322.018 63.4035 395.799 37.1808C451.255 17.4723 576.781 57.6572 535.902 181.261C511.103 256.239 606.558 236.515 591.754 332.337L193.149 331.421Z" fill="#FBECDB"/>
<path d="M224.806 234.504V331.362H153.768V234.504H224.806Z" fill="#F9DDBF"/>
<path d="M279.989 234.504V331.367H224.806V234.504H279.989Z" fill="#FFF3E9"/>
<path d="M242.862 193.185L219.586 241.033H148.875L185.741 193.36L242.862 193.185Z" fill="#ED9F4A"/>
<path d="M245.652 193.185L222.379 241.033H151.666L188.532 193.36L245.652 193.185Z" fill="#F9DDBF"/>
<path d="M189.167 217.109H187.681C182.636 217.109 178.546 221.194 178.546 226.231V249.408H198.005V225.934C198.005 221.061 194.048 217.109 189.167 217.109Z" fill="#EFCDAF"/>
<path d="M287.676 243.688H223.491L185.553 193.185L206.91 193.189L248.632 193.196L287.676 243.688Z" fill="#ED9F4A"/>
<path d="M287.676 243.688H275.915L206.91 193.189L248.632 193.196L287.676 243.688Z" fill="#E58638"/>
<path d="M180.824 254.398L164.253 288.461H113.91L140.156 254.522L180.824 254.398Z" fill="#ED9F4A"/>
<path d="M182.332 254.398L165.761 288.461H115.418L141.664 254.522L182.332 254.398Z" fill="#F9DDBF"/>
<path d="M165.651 288.461V324.944H148.985C148.427 324.861 148.143 324.807 148.143 324.807C148.143 324.807 139.638 324.807 129.575 321.36C124.96 319.778 120.019 317.472 115.419 314.11V288.461H165.651Z" fill="#F9DDBF"/>
<path d="M208.188 288.461V318.118C205.15 319.001 202.213 319.789 199.38 320.485C189.633 322.882 181.125 324.231 173.987 324.944H165.652V288.461H208.188Z" fill="#FFF3E9"/>
<path d="M212.862 290.477H167.166L140.155 254.52L153.767 254.522L185.066 254.529L212.862 290.477Z" fill="#ED9F4A"/>
<path d="M150.738 296.025V324.944H148.985C148.427 324.861 148.143 324.807 148.143 324.807C148.143 324.807 139.638 324.807 129.575 321.36V296.374C129.575 293.241 130.916 290.423 133.058 288.461C134.971 286.703 137.525 285.634 140.331 285.634C143.094 285.634 145.606 286.707 147.466 288.461C149.482 290.355 150.738 293.043 150.738 296.025Z" fill="#EFCDAF"/>
<path d="M137.781 273.432C137.781 272.123 138.845 271.061 140.156 271.061C141.468 271.061 142.531 272.123 142.531 273.432C142.531 274.741 141.468 275.804 140.156 275.804C138.845 275.804 137.781 274.741 137.781 273.432Z" fill="#EFCDAF"/>
<path d="M212.862 290.477H204.19L153.767 254.522L185.066 254.529L212.862 290.477Z" fill="#E58638"/>
<path d="M440.997 331.367C404.538 320.574 360.338 310.652 324.032 319.335C287.724 328.016 273.773 339.731 233.901 312.779C230.283 310.334 226.945 308.521 223.818 307.225C230.858 305.951 240.266 303.726 236.097 301.474C231.749 299.127 224.474 303.139 220.268 305.944C219.215 305.624 218.187 305.362 217.179 305.157C226.785 298.289 243.821 285.298 235.896 284.861C228.079 284.429 218.627 297.467 214.014 304.679C213.223 304.603 212.443 304.557 211.674 304.544C211.265 300.796 209.763 294.159 204.246 293.745C198.607 293.322 205.266 300.641 209.254 304.607C187.787 306.032 173.257 330.367 128.181 315.009C121.257 312.651 114.108 312.792 107.372 314.25C103.133 304.899 90.5466 279.471 80.1381 282.115C69.7409 284.759 95.4943 306.778 105.268 314.749C104.104 315.048 102.956 315.386 101.826 315.753C95.9079 311.396 84.8098 304.354 78.4693 307.445C72.2719 310.469 87.8083 314.793 97.9212 317.162C84.4344 322.503 74.3838 331.34 74.3838 331.34L440.997 331.367Z" fill="#A8D29F"/>
<path d="M574.683 331.375H532.275C529.983 329.455 533.828 325.075 537.855 324.778C539.603 324.647 541.807 325.007 544.326 325.542C544.912 317.799 548.246 283.018 560.8 284.412C574.921 285.983 560.8 299.733 556.811 307.877C553.852 313.905 550.73 322.559 549.31 326.646C550.455 326.892 551.641 327.141 552.854 327.361C554.722 321.621 561.687 302.316 570.547 303.44C580.947 304.755 576.765 312.496 569.398 317.092C563.986 320.469 557.341 325.273 554.187 327.592C556.861 328.029 559.655 328.317 562.487 328.253C569.769 328.081 573.317 330.23 574.683 331.375Z" fill="#A8D29F"/>
<path d="M351.509 93.5118C351.509 93.5118 361.601 98.2807 363.893 97.6786C366.187 97.0787 374.899 95.5428 376.122 96.0839C376.122 96.0839 377.51 98.2938 376.463 99.7468C375.417 101.2 366.941 105.131 363.878 105.275C360.817 105.417 349.193 103.314 346.729 101.39L351.509 93.5118Z" fill="#E8945B"/>
<path d="M375.816 96.1276C375.816 96.1276 379.707 94.5133 380.983 96.3152C382.257 98.1194 382.978 99.9431 382.82 100.868C382.663 101.791 380.035 102.197 378.984 101.479C377.933 100.761 375.331 99.7577 375.331 99.7577L375.816 96.1276Z" fill="#E8945B"/>
<path d="M394.418 322.317C394.418 322.317 392.27 325.788 392.224 329.815C392.213 330.712 392.945 331.441 393.843 331.441H407.236C408.534 331.441 409.489 330.223 409.17 328.969C408.547 326.519 407.212 322.819 404.538 320.574C400.269 316.99 394.418 322.317 394.418 322.317Z" fill="#163560"/>
<path d="M373.226 318.766C373.226 318.766 372.457 331.166 370.054 331.343C369.735 331.367 357.869 331.367 357.869 331.367H342.564C342.564 331.367 342.822 327.634 347.248 326.864C351.677 326.094 359.088 322.987 361.769 317.143C364.592 310.997 373.226 318.766 373.226 318.766Z" fill="#163560"/>
<path d="M379.639 242.168C379.104 249.057 379.034 254.494 379.742 257.072C382.901 268.604 374.048 320.675 374.048 320.675C367.524 323.792 358.256 320.642 358.256 320.642C358.819 313.43 355.385 248.859 352.188 209.466C350.851 192.929 349.846 181.357 349.846 181.357L388.938 176.813C388.938 176.813 381.49 218.244 379.639 242.168Z" fill="#2B478B"/>
<path d="M388.938 176.813C388.938 176.813 381.49 218.244 379.639 242.167L352.188 209.466C350.851 192.928 349.846 181.357 349.846 181.357L388.938 176.813Z" fill="#233862"/>
<path d="M369.762 185.649C369.762 185.649 389.55 300.696 392.954 322.972C392.954 322.972 400.363 325.038 407.931 321.837C407.931 321.837 408.91 268.378 406.321 252.273C403.73 236.168 407.7 186.384 403.527 181.753C399.351 177.122 369.762 185.649 369.762 185.649Z" fill="#2B478B"/>
<path d="M371.8 87.543C371.8 87.543 370.281 97.7682 370.948 100.822C371.612 103.877 381.785 105.537 386.041 103.013C390.295 100.491 389.017 99.5527 389.017 99.5527C389.017 99.5527 388.366 87.8485 387.769 87.0129C387.173 86.1774 371.8 87.543 371.8 87.543Z" fill="#FFB27D"/>
<path d="M404.537 149.939C405.883 137.094 405.538 127.427 404.269 120.156C400.552 98.8153 388.909 98.1041 388.909 98.2416C388.909 101.113 382.722 103.763 377.731 103.438C373.526 103.163 370.797 99.9694 370.797 98.2416C370.797 98.2263 370.718 98.2285 370.576 98.2416C369.488 98.2525 364.498 98.3419 359.778 99.1578C356.359 99.7491 353.084 100.718 351.546 102.319C350.751 103.141 347.921 105.454 344.283 108.593C335.024 116.591 320.541 129.977 321.181 137.953C321.181 137.953 339.081 151.08 350.425 142.851C349.809 164.211 345.926 186.835 346.877 186.819C346.877 186.819 353.2 192.286 372.411 192.286C382.916 192.286 390.511 191.388 395.781 190.348C402.962 188.934 405.82 187.263 405.82 187.263C407.421 187.239 404.072 154.372 404.537 149.939Z" fill="#F99746"/>
<path d="M405.82 187.263C405.82 187.263 402.962 188.934 395.781 190.348C385.857 185.958 366.154 174.613 365.385 155.561C364.363 130.219 395.348 115.129 395.348 115.129C395.348 115.129 399.506 117.435 404.269 120.156C405.538 127.427 405.883 137.093 404.538 149.939C404.072 154.371 407.422 187.239 405.82 187.263Z" fill="#ED7D2B"/>
<path d="M371.641 88.6948C371.641 88.6948 375.586 94.2492 379.757 94.2993C383.93 94.3495 388.188 88.782 388.188 88.782L371.641 88.6948Z" fill="#E8945B"/>
<path d="M371.258 88.4199C372.35 89.2773 374.791 90.4641 376.788 91.2473C378.302 91.8407 379.978 91.8756 381.518 91.3476C383.819 90.5535 387.306 89.3144 388.188 88.7821C390.277 87.5189 390.144 84.9577 390.251 81.3996C390.38 77.1869 390.804 73.8796 390.334 71.4493C389.772 68.5456 387.928 66.892 382.763 66.4426C373.283 65.6223 369.333 67.9915 369.169 71.1657C369.126 72.0187 369.086 72.8303 369.058 73.6004C368.68 83.4983 369.462 87.0084 371.258 88.4199Z" fill="#FFB27D"/>
<path d="M369.11 72.335C369.11 72.335 370.664 70.0508 373.581 70.9453C376.499 71.8419 376.799 74.3311 381.785 73.9341C386.772 73.5349 387.968 71.1787 388.865 72.3568C389.763 73.5349 390.283 80.4963 390.283 80.4963C390.283 80.4963 400.309 57.6703 379.986 57.6703C379.986 57.6703 359.045 56.4071 369.11 79.6106V72.335Z" fill="#2C3A64"/>
<path d="M332.186 93.9549L332.214 93.97C332.19 93.9829 332.186 93.9549 332.186 93.9549Z" fill="#FFB27D"/>
<path d="M378.958 164.159C378.958 164.159 376.299 166.25 372.41 166.25C372.41 166.25 368.442 161.884 365.099 157.662C362.936 154.927 361.035 152.251 360.642 150.862C359.643 147.33 340.98 146.333 338.693 143.843C336.405 141.354 347.967 135.108 347.967 135.108C347.967 135.108 366.915 138.001 369.764 141.718C370.896 143.198 372.584 147.055 374.206 151.16C376.657 157.373 378.958 164.159 378.958 164.159Z" fill="#E8945B"/>
<path d="M352.438 112.291C352.438 112.291 356.029 105.329 357.803 105.532C359.577 105.735 353.726 119.942 353.193 126.847C352.663 133.751 352.438 112.291 352.438 112.291Z" fill="#ED7D2B"/>
<path d="M363.674 160.217C361.183 166.241 357.956 171.731 357.543 172.424C357.515 172.472 357.5 172.498 357.5 172.498C357.5 172.498 357.48 172.498 357.441 172.498C356.838 172.492 351.635 172.379 351.126 170.293C351.126 170.293 350.958 163.075 351.247 157.341C351.375 154.778 351.594 152.513 351.959 151.318C351.959 151.318 323.746 151.13 324.242 143.161C324.736 135.191 339.488 130.974 347.967 135.108C347.967 135.108 359.21 139.188 365.129 144.577C368.035 147.223 366.248 154.003 363.674 160.217Z" fill="#FFB27D"/>
<path d="M325.081 131.986C325.081 131.986 321.325 137.499 322.206 142.644C323.086 147.786 333.805 150.534 341.306 150.862C341.306 150.862 362.757 145.953 359.431 137.414C358.675 135.479 325.081 131.986 325.081 131.986Z" fill="#2B478B"/>
<path d="M332.872 64.2348C332.872 64.2348 329.463 57.2711 321.235 61.5296C313.005 65.7881 321.017 81.8293 316.697 85.8391C312.378 89.8489 318.264 92.4755 317.388 95.3486C316.509 98.224 319.013 101.494 324.773 101.11C330.532 100.726 336.597 101.036 339.199 96.0053C341.801 90.9746 341.209 79.9051 340.204 78.3475C339.199 76.792 332.872 64.2348 332.872 64.2348Z" fill="#AA443E"/>
<path d="M346.208 102.402L332.214 93.97C332.291 93.9395 332.575 93.5184 333.621 90.4947C334.067 89.2076 334.303 88.0885 334.419 87.2027C334.43 87.1133 334.443 87.0282 334.449 86.9431C334.594 85.6538 334.489 84.9121 334.489 84.9121L337.554 86.0181L343.224 88.0688C343.158 89.5043 343.359 90.5144 343.665 91.2081C344.406 92.8901 345.784 92.9032 345.824 92.9032L346.208 102.402Z" fill="#FFB27D"/>
<path d="M343.666 91.208C338.186 91.6727 335.101 88.1036 334.419 87.2026C334.318 87.0717 334.268 86.9976 334.268 86.9976C334.268 86.9976 334.334 86.9779 334.449 86.943C334.895 86.8121 336.106 86.4478 337.554 86.018L343.225 88.0687C343.159 89.5042 343.36 90.5142 343.666 91.208Z" fill="#ED985F"/>
<path d="M343.94 89.2425C343.94 89.2425 331.766 90.5776 331.517 82.3574C331.268 74.1394 329.468 70.3784 337.891 69.6454C346.313 68.9123 348.304 71.9426 348.8 74.7241C350.351 83.4111 347.369 88.8738 343.94 89.2425Z" fill="#FFB27D"/>
<path d="M338.547 73.6593C334.238 72.5707 335.885 80.1932 334.797 79.6696C333.578 79.0871 331.487 79.0958 331.817 80.564C332.147 82.0323 332.623 82.558 332.872 83.4743C333.121 84.3905 332.87 86.2056 331.87 85.8391C330.867 85.4748 321.55 74.8526 328.129 66.5778C334.706 58.3052 354.322 63.4014 348.145 72.0558C347.059 73.5786 341.614 74.4359 338.547 73.6593Z" fill="#AA443E"/>
<path d="M354.179 135.102C354.179 135.102 350.522 137.039 344.762 136.95C341.094 136.893 333.303 135.3 328.293 133.496C325.439 132.471 323.486 131.373 323.722 130.451C324.058 129.124 326.505 118.936 328.765 109.507C330.829 100.888 332.741 92.9031 332.741 92.9031C332.741 92.9031 338.441 96.9478 341.765 95.521C345.088 94.0921 344.66 92.4799 344.66 92.4799C344.66 92.4799 348.575 91.9999 349.637 92.1243C351.332 92.3228 357.321 94.5044 357.321 94.5044C357.321 94.5044 358.107 96.7122 356.021 100.159C354.29 103.013 352.61 103.567 352.61 103.567C352.61 103.567 357.502 118.969 354.179 135.102Z" fill="#739AF0"/>
<path d="M335.861 121.349C335.861 121.349 339.376 120.694 340.75 121.593C342.127 122.492 342.533 123.899 341.543 124.473C338.441 126.275 335.295 124.283 335.295 124.283L335.861 121.349Z" fill="#FFB27D"/>
<path d="M328.292 133.496C325.439 132.47 323.486 131.373 323.722 130.45C324.058 129.124 326.505 118.936 328.764 109.507C329.431 108.285 329.854 107.557 329.854 107.557C329.854 107.557 334.141 127.126 328.292 133.496Z" fill="#4A82D3"/>
<path d="M332.881 94.0026C332.881 94.0026 322.053 96.2911 317.781 113.1C317.364 114.747 317.794 116.501 318.935 117.762C320.897 119.935 325.227 123.114 335.295 124.283C336.394 124.41 336.54 121.626 336.54 121.626C336.431 121.848 329.702 117.285 326.837 114.832C326.32 114.39 326.341 113.458 326.715 112.889C327.683 111.412 329.306 108.864 329.853 107.555C330.65 105.646 335.909 94.8687 332.881 94.0026Z" fill="#FFB27D"/>
<path d="M332.741 92.903C332.741 92.903 326.374 93.3546 321.183 100.266C321.183 100.266 322.94 106.625 331.188 108.323C331.188 108.323 336.27 96.8735 332.741 92.903Z" fill="#739AF0"/>
<path d="M363.674 160.217C361.183 166.24 357.957 171.731 357.544 172.424C357.509 172.448 357.476 172.472 357.441 172.498C356.838 172.492 351.636 172.379 351.127 170.293C351.127 170.293 350.959 163.075 351.247 157.341C352.075 158.134 355.269 160.5 363.674 160.217Z" fill="#EBF2F9"/>
<path d="M378.957 164.159C378.957 164.159 376.299 166.25 372.41 166.25C372.41 166.25 368.442 161.884 365.099 157.662C368.861 156.038 372.836 152.459 374.205 151.16C376.657 157.373 378.957 164.159 378.957 164.159Z" fill="#EBF2F9"/>
<path d="M365.527 180.289C365.411 180.947 364.762 181.37 364.106 181.237C362.547 180.92 359.728 180.318 358.559 179.894C356.901 179.291 353.722 177.415 352.064 176.813C351.494 176.606 350.124 176.054 349.239 175.694C348.769 175.503 348.518 174.99 348.66 174.503C348.955 173.494 349.523 171.774 350.334 170.337C350.482 170.07 350.723 169.869 351.026 169.724C351.885 170.413 353.242 171.171 355.055 171.178C356.541 171.185 357.775 170.821 358.69 170.414C358.804 170.644 361.065 175.198 362.667 175.78C364.106 176.303 365.994 177.677 365.527 180.289Z" fill="#AA443E"/>
<path d="M389.198 164.213C389.513 164.801 389.266 165.535 388.669 165.835C387.249 166.551 384.662 167.822 383.48 168.211C381.807 168.763 378.145 169.257 376.471 169.809C375.894 169.999 374.476 170.413 373.557 170.678C373.069 170.819 372.556 170.571 372.366 170.101C371.97 169.126 371.35 167.425 371.094 165.795C371.046 165.493 371.112 165.188 371.258 164.886C372.361 164.895 373.895 164.651 375.324 163.536C376.495 162.622 377.238 161.573 377.703 160.687C377.935 160.799 382.536 162.975 384.153 162.442C385.61 161.961 387.944 161.873 389.198 164.213Z" fill="#AA443E"/>
<path d="M366.37 155.107C366.37 155.107 365.557 159.805 362.499 161.968C362.499 161.968 350.073 160.261 338.507 157.339C330.003 155.192 321.958 152.388 319.66 149.125C314.226 141.426 322.502 132.052 322.502 132.052C322.502 132.052 338.454 139.738 355.723 149.155C359.261 151.084 362.848 153.085 366.37 155.107Z" fill="#F99746"/>
<path d="M347.677 161.967C347.677 161.967 343.984 162.267 342.588 163.661C341.192 165.055 339.077 169.11 340.585 170.718C342.09 172.325 349.271 168.801 349.47 168.223C349.669 167.644 347.677 161.967 347.677 161.967Z" fill="#FFB27D"/>
<path d="M366.37 155.107C366.37 155.107 365.558 159.805 362.499 161.968C362.499 161.968 350.073 160.261 338.507 157.339C343.943 152.618 351.048 150.268 355.723 149.156C359.261 151.084 362.848 153.085 366.37 155.107Z" fill="#ED7D2B"/>
<path d="M408.526 104.431C406.044 98.5403 389.707 98.3156 389.707 98.3156C381.394 120.092 379.397 134.375 377.201 143.553C376.845 143.518 376.511 143.518 376.207 143.555C376.207 143.555 364.531 148.104 347.177 160.687C347.177 160.687 345.361 165.656 348.621 169.724C348.621 169.724 378.523 163.134 386.876 158.246C386.882 158.247 386.889 158.248 386.889 158.248C386.972 158.195 387.055 158.142 387.138 158.088C387.265 158.01 387.387 157.932 387.501 157.855C414.663 140.233 412.078 112.86 408.526 104.431Z" fill="#F99746"/>
<path d="M339.029 208.92C339.029 208.92 347.412 211.812 346.233 221.454C346.233 221.454 345.459 225.367 343.045 223.633C340.631 221.896 341.762 222.217 338.317 219.844C334.869 217.47 332.619 213.728 333.012 210.756L339.029 208.92Z" fill="#FFB27D"/>
<path d="M339.411 209.539L334.445 215.555C334.216 215.836 333.849 215.964 333.492 215.898C328.837 215.044 312.815 204.734 307.567 200.526C306.999 200.07 306.557 199.686 306.269 199.393C304.314 197.402 297.567 187.58 292.777 178.833C290.02 173.795 287.912 169.114 287.746 166.491C287.147 157.127 292.08 144.031 292.08 144.031C306.673 149.103 308.209 160.737 308.209 160.737L316.3 190.801L339.215 207.901C339.737 208.292 339.826 209.038 339.411 209.539Z" fill="#739AF0"/>
<path d="M307.567 200.526C306.999 200.07 306.557 199.686 306.269 199.393C304.313 197.403 297.567 187.58 292.777 178.833C292.157 173.547 292.583 168.588 294.763 165.121C294.763 165.121 307.169 186.917 307.567 200.526Z" fill="#4A82D3"/>
<path d="M299.16 287.143L296.68 297.473L295.144 303.865L290.033 325.149C290.033 325.149 285.659 326.495 281.113 325.149C281.113 325.149 279.428 318.104 279.38 309.321C279.354 304.727 279.776 299.655 281.121 294.866C281.665 292.918 282.367 291.018 283.252 289.214C290.462 274.508 299.16 287.143 299.16 287.143Z" fill="#FFB27D"/>
<path d="M303.396 331.367H279.378C279.378 331.367 278.997 327.736 280.055 324.265C280.212 323.751 280.4 323.238 280.625 322.741C280.625 322.741 285.989 323.956 290.612 322.741C290.612 322.741 294.96 326.438 297.588 327.571C300.214 328.707 303.118 328.09 303.396 331.367Z" fill="#2B478B"/>
<path d="M296.68 297.473L295.144 303.865C292.533 305.53 286.901 308.543 279.38 309.321C279.354 304.727 279.776 299.655 281.121 294.866C283.33 293.747 285.579 293.163 287.493 293.496C292.26 294.325 295.094 296.066 296.68 297.473Z" fill="#E8945B"/>
<path d="M290.92 331.367H279.378C279.378 331.367 278.997 327.736 280.055 324.265C282.954 325.166 288.851 327.426 290.92 331.367Z" fill="#1F396D"/>
<path d="M280.013 287.143L277.534 297.473L275.998 303.865L270.887 325.149C270.887 325.149 266.513 326.495 261.966 325.149C261.966 325.149 260.282 318.104 260.234 309.321C260.205 304.727 260.629 299.655 261.973 294.866C262.519 292.918 263.22 291.018 264.105 289.214C271.315 274.508 280.013 287.143 280.013 287.143Z" fill="#FFB27D"/>
<path d="M261.479 322.741C261.479 322.741 266.841 323.956 271.466 322.741C271.466 322.741 275.814 326.438 278.44 327.573C281.068 328.705 283.972 328.09 284.249 331.367H260.231C260.231 331.367 259.729 326.58 261.479 322.741Z" fill="#2B478B"/>
<path d="M277.533 297.473L275.998 303.865C273.387 305.53 267.752 308.543 260.234 309.321C260.205 304.727 260.629 299.655 261.973 294.866C264.182 293.747 266.432 293.163 268.346 293.496C273.114 294.325 275.947 296.066 277.533 297.473Z" fill="#E8945B"/>
<path d="M304.172 296.788C303.595 298.92 301.659 300.399 299.446 300.399H260.935C258.034 300.399 255.751 297.936 255.973 295.052C256.378 289.814 257.822 281.26 258.451 275.483C258.713 273.081 258.833 271.161 258.683 270.16C254.794 244.476 251.532 214.224 251.927 208.441C251.984 207.627 252.023 207.207 252.023 207.207C252.023 207.207 254.829 206.971 259.096 206.805C271.497 206.316 296.254 206.401 300.368 214.5C304.559 222.75 307.089 277.525 307.089 277.525C307.7 282.643 305.537 291.744 304.172 296.788Z" fill="#C65447"/>
<path d="M258.451 275.483C258.713 273.081 258.834 271.161 258.683 270.16C254.794 244.476 251.532 214.224 251.927 208.441C251.984 207.627 252.023 207.207 252.023 207.207C252.023 207.207 254.829 206.97 259.096 206.805C265.511 210.578 269.686 217.008 269.686 217.008C269.686 217.008 268.395 265.07 258.451 275.483Z" fill="#B2443B"/>
<path d="M282.367 101.416C279.288 100.648 277.501 103.067 277.501 105.919C277.501 108.768 279.817 111.078 282.67 111.078C285.526 111.078 287.84 107.777 287.84 104.926C287.84 102.077 285.135 102.107 282.367 101.416Z" fill="#B2443B"/>
<path d="M280.778 130.968C280.778 130.968 264.75 116.556 279.259 106.353C279.259 106.353 283.588 105.201 285.79 105.611C285.79 105.611 293.675 103.307 298.29 108.656C302.906 114.006 304.912 117.874 300.955 122.645C297.001 127.418 280.778 130.968 280.778 130.968Z" fill="#C65447"/>
<path d="M262.386 218.013C262.386 218.013 266.342 225.941 258.737 231.997C258.737 231.997 255.44 234.251 254.935 231.323C254.428 228.398 255.012 229.416 254.216 225.313C253.421 221.207 254.439 216.964 256.803 215.116L262.386 218.013Z" fill="#FFB27D"/>
<path d="M293.907 130.834C293.907 130.834 293.708 132.992 293.341 135.909C293.164 137.333 292.946 138.941 292.688 140.564C292.507 141.732 292.303 142.907 292.081 144.033L287.119 160.766L275.467 141.939C275.467 141.939 278.207 139.676 281.917 127.418C281.951 127.287 281.978 127.215 281.978 127.215L293.907 130.834Z" fill="#FFB27D"/>
<path d="M300.696 213.388C300.846 215.268 300.37 215.61 300.37 215.61C300.37 215.61 293.206 218.203 275.187 217.306C273.238 217.209 271.401 217.11 269.686 217.008C258.073 216.324 251.864 215.61 251.864 215.61C251.864 215.61 242.353 193.69 260.221 166.683C262.242 163.63 264.612 160.511 267.385 157.352C270.28 154.057 270.918 149.649 272.015 145.458C272.327 144.256 271.421 143.992 271.873 142.857C271.873 142.857 275.13 141.939 275.467 141.939C277.317 143.566 279.76 146.732 285.819 147.356C289.915 147.783 291.519 145.477 292.103 144.096C293.662 144.659 295.281 145.634 296.608 146.269C307.587 151.531 308.594 161.739 308.594 161.739C308.594 161.739 298.504 194.867 297.879 199.003C297.597 200.842 299.913 203.702 300.696 213.388Z" fill="#739AF0"/>
<path d="M293.341 135.909C293.164 137.334 292.559 141.234 292.303 142.857C279.965 138.056 281.58 128.695 281.916 127.418C281.951 127.287 281.977 127.215 281.977 127.215C281.977 127.215 288.504 131.843 293.341 135.909Z" fill="#E8945B"/>
<path d="M295.987 137.565C295.987 137.565 281.735 138.021 281.589 129.155C281.44 120.291 279.5 114.379 288.594 113.711C297.685 113.046 299.509 116.399 300.28 119.346C301.049 122.294 299.69 137.218 295.987 137.565Z" fill="#FFB27D"/>
<path d="M297.23 112.385C297.23 112.385 296.337 127.185 278.965 125.596C278.965 125.596 279.334 105.098 297.23 112.385Z" fill="#C65447"/>
<path d="M293.907 113.855C293.907 113.855 298.775 119.872 300.982 121.792C300.982 121.792 306.398 114.032 293.907 113.855Z" fill="#C65447"/>
<path d="M293.907 113.855C293.907 113.855 298.279 121.231 300.488 123.149C300.488 123.149 306.398 114.032 293.907 113.855Z" fill="#C65447"/>
<path d="M269.686 217.007C258.073 216.324 251.864 215.609 251.864 215.609C251.864 215.609 242.353 193.69 260.221 166.683C263.839 175.103 272.371 197.604 269.686 217.007Z" fill="#4A82D3"/>
<path d="M275.466 141.939C275.466 141.939 261.682 144.762 255.538 151.863C250.834 157.306 245.685 183.91 245.685 188.306C245.685 192.506 250.522 214.84 253.539 219.121C253.749 219.42 254.098 219.584 254.461 219.547L262.226 218.724C262.873 218.655 263.332 218.06 263.233 217.417L258.87 189.185L274.182 162.068C274.182 162.068 283.212 151.383 275.466 141.939Z" fill="#739AF0"/>
<path d="M334.609 323.722C334.609 323.722 335.778 325.998 338.365 326.56C339.995 326.916 341.391 327.762 342.258 328.949C342.992 329.955 342.282 331.367 341.039 331.367H327.904C326.785 331.367 325.913 330.402 326.025 329.292C326.123 328.319 326.226 327.189 326.269 326.32C326.366 324.427 328.266 322.902 328.266 322.902L334.609 323.722Z" fill="#2C3A64"/>
<path d="M337.586 290.649C338.134 300.621 336.771 323.288 336.771 323.288C336.771 323.288 335.855 325.814 330.072 326.418C326.976 326.741 324.185 325.938 324.185 325.938C323.019 320.572 321.939 315.445 320.947 310.576C313.807 275.603 311.023 254.001 311.023 254.001L339.205 247.46C339.205 247.46 337.97 267.204 337.607 280.668C337.494 284.87 337.465 288.461 337.586 290.649Z" fill="#35488B"/>
<path d="M339.205 247.461C339.205 247.461 337.97 267.204 337.607 280.669L320.947 310.576C313.807 275.603 311.023 254.001 311.023 254.001L339.205 247.461Z" fill="#2C3A64"/>
<path d="M310.87 202.241C310.87 202.241 299.965 197.285 291.715 201.621C283.465 205.956 288.51 241.742 300.306 245.211C300.306 245.211 322.408 252.268 310.87 202.241Z" fill="#35488B"/>
<path d="M339.069 254.832L339.143 254.788L339.106 254.836C339.102 254.841 339.088 254.838 339.069 254.832ZM342.416 255.803C342.383 255.755 342.348 255.709 342.309 255.663C342.049 255.268 341.61 254.282 341.286 253.519C343.48 242.796 342.005 236.596 342.005 236.596C342.265 233.474 344.131 211.666 339.834 201.563C337.76 196.688 334.286 196.68 334.286 196.68C334.286 196.68 335.101 204.468 334.564 208.655C334.07 212.498 337.738 248.512 338.343 254.398C338.335 254.396 338.326 254.396 338.324 254.4L338.499 260.384L340.257 259.97C340.332 259.95 340.406 259.924 340.476 259.891C340.69 259.793 340.878 259.636 341.013 259.422L342.434 257.175C342.707 256.743 342.683 256.204 342.416 255.803Z" fill="#E8945B"/>
<path d="M311.744 323.722C311.744 323.722 312.913 325.998 315.5 326.56C317.13 326.916 318.526 327.762 319.394 328.949C320.128 329.955 319.418 331.367 318.175 331.367H305.039C303.92 331.367 303.049 330.402 303.16 329.292C303.258 328.319 303.361 327.189 303.405 326.32C303.503 324.427 305.402 322.902 305.402 322.902L311.744 323.722Z" fill="#2C3A64"/>
<path d="M320.881 156.71C318.074 156.71 314.545 157.917 312.651 159.754C310.641 161.706 308.548 161.806 307.058 164.109C305.504 166.511 304.543 169.006 305.323 172.385C306.175 176.076 306.003 179.647 308.323 182.356C309.474 183.698 311.344 183.849 312.651 185.082C315.048 187.345 317.772 188.061 320.881 188.061C326.741 188.061 330.39 184.594 333.387 180.275C335.791 176.814 335.315 174.482 335.878 171.521C337.655 162.204 329.87 156.71 320.881 156.71Z" fill="#35488B"/>
<path d="M329.132 194.268L317.93 199.985L315.686 192.225C315.686 192.225 317.113 189.54 317.759 185.141C318.028 183.291 318.164 181.138 317.991 178.753L327.117 183.42C327.117 183.42 326.901 184.262 326.755 185.506C326.6 186.85 326.53 188.662 326.912 190.382C327.242 191.86 327.904 193.271 329.132 194.268Z" fill="#FFB27D"/>
<path d="M303.18 250.497C303.18 250.497 301.052 278.683 301.526 323.604C301.526 323.604 304.095 324.955 307.194 325.262C312.979 325.836 314.388 323.547 314.388 323.547C314.388 323.547 320.305 301.623 321.784 291.744C323.148 282.636 332.104 249.773 332.104 249.773L303.18 250.497Z" fill="#35488B"/>
<path d="M336.536 195.05C335.54 194.584 332.409 193.321 327.709 192.549C327.76 194.157 327.336 195.671 324.511 196.04C320.751 196.529 317.388 193.967 315.686 192.226C315.686 192.226 315.686 192.226 315.686 192.226V192.225C315.686 192.225 313.036 192.509 309.944 193.184C308.397 193.523 306.741 193.96 305.251 194.512C303.446 195.175 301.886 196.002 301.054 197.021C301.052 197.021 301.052 197.021 301.052 197.022V197.023C298.159 200.568 293.4 211.244 293.4 211.244C293.4 211.244 301.321 214.176 303.32 215.887L303.366 216.269L304.607 226.55L300.914 247.028C300.881 247.209 300.864 247.388 300.864 247.565C300.864 248.933 301.801 250.166 303.18 250.495C303.18 250.495 303.497 250.547 304.082 250.628C307.998 251.178 323.89 253.071 336.351 249.692C339.152 248.933 340.998 246.263 340.766 243.37L338.734 217.916C339.82 217.73 341.07 217.533 342.088 217.42C342.934 217.328 343.613 217.297 343.895 217.381C343.895 217.381 342.488 197.503 336.536 195.05Z" fill="#F99746"/>
<path d="M313.022 232.826C312.865 239.971 308.176 248.366 304.082 250.628C303.497 250.547 303.18 250.495 303.18 250.495C301.801 250.165 300.864 248.933 300.864 247.565C300.864 247.388 300.881 247.209 300.914 247.028L304.606 226.55L303.365 216.269C303.427 216.09 303.457 215.995 303.457 215.995C303.457 215.995 313.302 220.204 313.022 232.826Z" fill="#ED7D2B"/>
<path d="M342.088 217.42C341.043 217.536 338.728 217.917 338.728 217.917L337.557 207.255C337.557 207.255 341.474 214.77 342.088 217.42Z" fill="#ED7D2B"/>
<path d="M301.574 243.373L302.533 238.054C318.775 214.588 320.005 210.378 312.701 199.842C310.608 196.825 306.802 194.939 305.251 194.512C306.741 193.961 308.397 193.524 309.944 193.185C311.486 193.908 312.904 194.619 314.003 195.569C336.298 214.841 301.574 243.373 301.574 243.373Z" fill="#35488B"/>
<path d="M320.541 213.257C314.183 213.696 313.302 220.203 313.302 220.203C313.302 220.203 302.629 221.17 301.052 221.87C301.052 221.87 301.917 219.532 303.457 215.995C302.065 214.628 297.493 212.596 294.464 211.662C292.155 217.546 291.266 223.369 292.561 228.985C292.699 229.578 293.221 230.003 293.829 230.032C297.226 230.189 308.452 230.132 316.669 223.339L316.813 223.299C318.782 223.181 320.628 221.231 321.338 218.665C322.046 216.1 322.103 216.884 322.647 215.079C323.191 213.273 320.541 213.257 320.541 213.257Z" fill="#FFB27D"/>
<path d="M326.911 190.382C321.722 190.244 317.759 185.141 317.759 185.141L326.754 185.506C326.599 186.85 326.529 188.662 326.911 190.382Z" fill="#E8945B"/>
<path d="M327.405 187.252C327.405 187.252 315.939 188.648 315.695 180.581C315.45 172.514 320.228 167.289 323.42 167.349C329.78 167.468 330.829 170.035 331.568 172.708C332.304 175.38 332.684 186.684 327.405 187.252Z" fill="#FFB27D"/>
<path d="M324.338 182.603C324.338 182.603 324.589 183.609 327.1 183.423C327.1 183.423 329.209 183.268 329.132 182.16C329.132 182.16 327.076 181.396 324.338 182.603Z" fill="white"/>
<path d="M326.258 167.424C326.258 167.424 316.457 167.418 318.71 174.136C320.13 178.37 315.41 179.028 315.41 179.028L313.138 172.242L314.561 166.955L326.258 167.424Z" fill="#35488B"/>
<path d="M459.41 163.17C456.969 159.121 455.453 141.046 453.69 136.206C452.578 133.145 449.595 129.488 449.91 129.261C446.735 127.392 438.151 126.493 438.151 126.493C438.151 126.5 438.149 126.506 438.149 126.513C437.814 126.443 437.48 126.373 437.159 126.308C436.13 126.1 435.157 125.503 435.042 124.46C435.039 124.41 435.033 124.355 435.026 124.303C434.895 123.022 434.867 121.713 434.882 120.579C434.882 120.563 434.882 120.546 434.882 120.531C434.911 118.676 435.053 117.3 435.053 117.3L435.018 117.295L423.888 115.509C423.737 118.98 423.536 121.563 423.322 123.489C423.16 124.962 421.959 126.109 420.477 126.199C420.257 126.212 420.031 126.225 419.806 126.24C419.806 126.24 412.631 125.961 409.887 126.796C409.671 126.862 409.439 126.96 409.19 127.084C409.356 127.259 382.766 153.87 383.452 156.952C384.138 160.034 395.805 177.534 400.035 180.759H404.27C404.27 180.759 394.886 159.388 394.763 157.655C394.584 155.119 418.362 140.924 418.362 138.337C418.362 137.394 424.991 137.111 429.326 137.144C433.916 137.179 442.562 134.785 442.562 134.785C442.562 134.785 446.3 163.063 451.022 171.451C454.747 178.065 471.199 195.012 471.199 195.012L474.671 191.939C474.671 191.939 465.324 172.977 459.41 163.17Z" fill="#FFB27D"/>
<path d="M425.72 272.003C427.73 291.755 425.296 317.62 425.296 317.62H418.48C408.189 290.59 407.879 273.633 407.293 267.265C406.972 263.796 402.281 249.928 398.071 236.589C394.551 225.452 391.372 214.682 391.35 210.647C391.304 201.4 400.533 186.567 400.533 186.567C400.533 186.567 413.791 191.674 421.973 196.719C424.704 198.404 426.795 200.051 427.51 201.447C429.406 205.162 430.811 231.676 425.764 247.872C422.725 257.624 424.28 262.624 424.28 262.624C424.912 265.471 425.379 268.648 425.72 272.003Z" fill="#C65447"/>
<path d="M425.764 247.873C422.725 257.624 424.28 262.625 424.28 262.625C424.912 265.472 425.379 268.648 425.72 272.003L398.071 236.589C394.551 225.452 391.372 214.683 391.35 210.647C391.304 201.4 400.533 186.567 400.533 186.567C400.533 186.567 413.791 191.674 421.973 196.719C424.704 198.404 426.795 200.051 427.51 201.447C429.406 205.162 430.811 231.677 425.764 247.873Z" fill="#B2443B"/>
<path d="M418.48 317.62C418.48 317.62 418.093 322.06 417.523 322.974C416.95 323.886 414.549 326.968 411.805 327.996C409.061 329.023 401.211 328.491 400.601 331.34H428.27C428.27 331.34 428.651 327.071 427.584 324.261C426.516 321.451 425.297 317.62 425.297 317.62H418.48Z" fill="#2B478B"/>
<path d="M464.736 316.621C464.736 316.621 467.83 320.843 468.592 322.516C469.355 324.191 474.382 331.279 473.775 331.34C473.165 331.399 459.75 331.34 459.75 331.34C459.75 331.34 458.378 327.996 458.531 325.712C458.682 323.43 456.7 319.095 457.082 316.621C457.462 314.145 464.736 316.621 464.736 316.621Z" fill="#2B478B"/>
<path d="M464.736 316.621H457.082C457.082 316.621 427.239 273.543 426.212 262.59C424.93 248.894 415.345 194.828 415.345 194.828L445.957 185.312C445.957 185.312 448.633 192.182 450.875 199.109C451.852 202.13 452.747 205.162 453.302 207.639C454.528 213.108 451.076 233.771 448.723 248.462C447.558 255.696 446.663 261.484 446.722 263.292C446.899 268.772 456.96 269.484 464.736 316.621Z" fill="#C65447"/>
<path d="M423.735 118.508C423.719 118.783 423.702 119.054 423.682 119.313C423.7 119.054 423.719 118.783 423.735 118.508Z" fill="#2B478B"/>
<path d="M423.8 117.368C423.785 117.662 423.769 117.95 423.752 118.231C423.769 117.95 423.783 117.662 423.8 117.368Z" fill="#2B478B"/>
<path d="M423.892 115.509C423.881 115.727 423.872 115.941 423.861 116.15C423.87 115.941 423.881 115.727 423.889 115.509H423.892Z" fill="#2B478B"/>
<path d="M450.23 192.512C451.229 195.507 436.824 197.257 420.837 197.046C416.321 196.986 412.122 196.437 408.663 195.542C401.346 193.652 397.319 190.214 400.531 186.568C401.446 185.532 411.578 171.053 411.578 171.053C412.176 169.757 411.527 165.508 408.434 155.413C407.166 151.285 408.818 148.717 409.408 147.081C409.408 147.081 409.408 147.079 409.41 147.076C409.613 146.507 409.692 146.051 409.474 145.678C408.091 143.289 406.091 140.988 404.282 139.151C401.958 136.786 399.941 135.2 399.941 135.2C399.941 135.2 405.875 128.744 409.192 127.084C412.609 130.662 420.02 137.069 429.327 137.141C437.359 137.202 445.161 132.687 449.911 129.259C450.267 129.469 450.558 129.691 450.757 129.925C453.724 133.402 454.571 139.676 454.571 139.676C454.571 139.676 445.019 144.938 445.19 146.651C445.664 151.372 446.112 152.754 445.904 154.44L445.902 154.456C445.828 155.048 445.67 155.68 445.408 156.509C443.778 161.618 440.252 169.508 441.132 172.166C441.362 172.855 448.801 188.212 450.23 192.512Z" fill="#2B478B"/>
<path d="M409.891 126.794C410.044 126.748 410.212 126.705 410.391 126.665C410.212 126.707 410.042 126.751 409.889 126.796L409.891 126.794Z" fill="#FFB27D"/>
<path d="M435.555 125.511C435.788 125.749 436.086 125.939 436.411 126.076C436.086 125.939 435.791 125.751 435.555 125.511Z" fill="#FFB27D"/>
<path d="M436.411 126.076C436.531 126.126 436.654 126.172 436.78 126.212C436.654 126.175 436.531 126.129 436.411 126.076Z" fill="#FFB27D"/>
<path d="M474.67 191.939C474.67 191.939 480.519 193.451 481.321 194.266C482.121 195.082 484.413 201.417 483.607 201.475C479.416 201.78 477.205 199.534 477.205 199.534C474.67 196.749 470.884 196.305 471.072 194.266C471.26 192.228 474.67 191.939 474.67 191.939Z" fill="#FFB27D"/>
<path d="M400.035 180.759C400.035 180.759 395.799 186.101 395.799 187.072C395.799 188.042 396.657 192.095 397.686 192.152C398.716 192.209 399.058 188.841 399.858 188.213C400.658 187.585 403.518 186.405 403.917 185.312C404.317 184.218 404.269 180.759 404.269 180.759H400.035Z" fill="#FFB27D"/>
<path d="M423.361 123.144C428.62 122.47 435.021 117.296 435.021 117.296C431.285 115.271 428.043 115.077 425.526 115.771C424.925 115.936 424.366 116.152 423.848 116.408L423.361 123.144Z" fill="#E8945B"/>
<path d="M421.455 118.057C421.455 118.057 434.462 122.39 437.041 114.261C439.619 106.132 443.034 101.217 434.838 98.1084C426.645 94.9953 424.038 97.5848 422.517 100.089C420.997 102.594 418.139 116.72 421.455 118.057Z" fill="#FFB27D"/>
<path d="M426.123 114.479C426.123 114.479 425.642 115.422 423.188 114.662C423.188 114.662 421.125 114.023 421.458 112.939C421.458 112.939 423.678 112.651 426.123 114.479Z" fill="white"/>
<path d="M456.352 98.9724C454.895 97.1049 459.678 93.2501 449.964 88.6186C442.594 85.104 440.311 90.4271 439.636 93.2021C435.255 90.7064 428.104 83.5137 423.542 88.1997C418.082 93.8086 424.005 98.7477 424.005 98.7477C426.077 100.253 427.082 99.8363 430.11 100.502C433.138 101.165 431.204 104.664 431.44 105.844C431.676 107.022 433.743 109.409 436.544 108.205C439.343 106.998 439.022 111.606 436.359 112.553C435.6 112.823 434.814 117.058 435.913 117.237C436.837 117.387 440.173 117.418 440.514 114.699C440.715 113.085 442.769 112.243 444.947 110.574C446.453 112.005 448.572 112.736 449.741 112.568C451.461 112.324 451.478 110.945 455.166 108.488C458.852 106.032 457.81 100.84 456.352 98.9724Z" fill="#C65447"/>
<path d="M408.663 195.543C401.346 193.653 397.319 190.215 400.531 186.568C401.444 185.532 411.578 171.052 411.578 171.052C411.578 171.052 414.294 187.403 408.663 195.543Z" fill="#233862"/>
<path d="M456.099 331.356L455.004 214.204C455.004 214.204 454.058 205.767 446.687 205.767C438.819 205.767 438.369 214.204 438.369 214.204C438.369 214.204 438.482 214.934 439.288 214.934C440.134 214.934 440.274 214.204 440.274 214.204C440.274 214.204 440.621 207.7 446.687 207.7C452.369 207.7 453.099 214.204 453.099 214.204V331.356H456.099Z" fill="#233862"/>
<path d="M452.087 331.356H456.98L456.545 326.247C456.545 326.247 456.587 325.538 455.597 325.498C454.679 325.459 452.865 325.33 452.693 325.884C452.542 326.371 452.087 331.356 452.087 331.356Z" fill="#233862"/>
<path d="M446.625 199.558L446.291 201.234C446.291 201.234 437.995 201.202 436.057 210.078C436.057 210.078 435.531 213.772 438.198 212.983C440.864 212.195 440.449 210.31 444.226 209.278C448.002 208.245 450.462 207.454 451.034 204.709L451.653 201.655L446.625 199.558Z" fill="#FFB27D"/>
<path d="M475.956 126.921C475.956 126.921 473.763 135.542 471.871 143.422C471.108 146.599 470.396 149.651 469.893 151.974C469.38 154.36 469.089 155.975 469.201 156.154C470.846 158.821 467.84 175.084 465.463 180.989C465.253 181.513 464.964 182.126 464.617 182.807C461.292 189.316 452.439 202.091 452.439 202.091C452.439 202.091 449.942 202.352 448.31 201.737C446.946 201.221 446.016 199.557 446.016 199.557C446.807 198.285 450.009 183.256 454.132 174.828C455.895 171.223 458.491 137.776 461.906 133.274C464.755 129.517 475.956 126.921 475.956 126.921Z" fill="#F99746"/>
<path d="M469.202 156.154C470.848 158.821 467.841 175.084 465.463 180.989C465.254 181.513 464.965 182.126 464.618 182.807C461.441 168.772 466.707 148.889 466.707 148.889C468.02 149.409 469.091 155.975 469.202 156.154Z" fill="#ED7D2B"/>
<path d="M492.226 318.452C492.226 318.452 493.072 331.155 490.668 331.332C490.349 331.356 478.483 331.356 478.483 331.356H463.178C463.178 331.356 463.436 327.623 467.862 326.853C472.291 326.083 479.702 322.976 482.383 317.132C485.206 310.986 492.226 318.452 492.226 318.452Z" fill="#0F2949"/>
<path d="M515.246 318.452C515.246 318.452 516.091 331.155 513.69 331.332C513.369 331.356 501.503 331.356 501.503 331.356H486.198C486.198 331.356 486.456 327.623 490.884 326.853C495.311 326.083 502.722 322.976 505.403 317.132C508.226 310.986 515.246 318.452 515.246 318.452Z" fill="#163560"/>
<path d="M492.951 287.833C493.327 293.204 494.096 300.111 493.821 306.337C493.439 315.044 493.163 322.385 493.163 322.385C487.415 324.338 476.866 321.97 476.866 321.97C476.866 321.97 473.126 299.969 470.043 282.405C468.662 274.536 467.515 267.727 467.085 264.514C465.699 254.123 468.562 198.877 468.562 198.877C468.562 198.877 484.116 188.922 490.544 194.055C496.967 199.185 500.924 204.201 490.57 260.417C489.783 264.682 492.108 275.801 492.951 287.833Z" fill="#2B478B"/>
<path d="M492.951 287.833C493.327 293.204 494.022 301.802 493.749 308.028C488.341 302.312 477.683 290.257 470.043 282.405C468.662 274.536 467.515 267.727 467.085 264.514C465.699 254.123 468.562 198.877 468.562 198.877C468.562 198.877 484.116 188.922 490.544 194.055C496.967 199.185 500.924 204.201 490.57 260.417C489.783 264.682 492.108 275.802 492.951 287.833Z" fill="#233862"/>
<path d="M482.619 200C482.619 200 484.015 255.303 486.198 265.557C488.381 275.81 499.772 322.749 499.772 322.749C499.772 322.749 510.451 323.72 516.031 321.333C516.031 321.333 515.675 299.596 513.783 286.823C512.014 274.892 508.841 263.981 509.296 259.671C515.293 202.826 510.965 198.13 504.161 193.506C497.36 188.882 482.619 200 482.619 200Z" fill="#2B478B"/>
<path d="M503.727 204.842C503.727 204.842 500.028 212.255 507.14 217.92C507.14 217.92 510.225 220.027 510.697 217.29C511.169 214.553 510.625 215.506 511.368 211.668C512.113 207.83 511.16 203.861 508.949 202.133L503.727 204.842Z" fill="#FFB27D"/>
<path d="M472.54 114.39C472.54 114.39 476.809 120.871 475.959 126.921L482.278 142.124L493.679 124.72C493.679 124.72 487.657 118.173 485.409 109.25L472.54 114.39Z" fill="#FFB27D"/>
<path d="M470.668 119.92C470.668 119.92 486.217 120.592 486.502 111.27C486.783 101.948 490.987 95.7479 479.355 94.9276C469.789 94.2556 466.608 98.2371 465.756 101.326C464.904 104.415 464.902 119.42 470.668 119.92Z" fill="#FFB27D"/>
<path d="M508.739 202.665C505.398 202.975 500.797 203.36 495.217 203.71C494.103 203.78 492.949 203.85 491.758 203.915C474.906 204.857 468.208 202.133 468.208 202.133C468.208 202.133 467.762 201.773 467.904 199.796C468.636 189.621 470.799 186.615 470.539 184.682C469.951 180.335 459.392 144.869 459.392 144.869C459.392 144.869 459.189 133.666 471.666 128.407C472.953 127.863 474.371 127.386 475.94 126.989C476.486 128.439 477.985 130.861 481.817 130.416C487.48 129.755 491.514 126.421 493.244 124.711C493.556 124.711 493.681 124.722 493.681 124.722C494.103 125.913 494.433 127.154 494.725 128.417C495.75 132.822 496.349 137.454 499.054 140.918C501.726 144.336 504.011 147.709 505.962 151.008C507.585 153.752 508.977 156.447 510.168 159.072C521.215 183.45 512.67 202.296 508.739 202.665Z" fill="#F99746"/>
<path d="M508.74 202.665C505.399 202.975 500.798 203.36 495.217 203.711C493.589 176.322 504.765 150.017 504.765 150.017C505.187 150.312 505.585 150.643 505.963 151.008C507.91 152.896 509.266 155.698 510.169 159.072C513.499 171.49 510.713 191.667 508.74 202.665Z" fill="#ED7D2B"/>
<path d="M465.653 111.03C465.653 111.03 462.625 123.022 467.764 124.711C472.901 126.399 486.541 125.047 486.535 110.343C486.535 110.343 479.377 114.605 475.96 114.499C472.54 114.39 470.333 112.42 467.172 113.96C467.172 113.96 466.016 113.883 465.653 111.03Z" fill="#C8D9E8"/>
<path d="M493.679 124.72C493.679 124.72 504.551 124.964 510.295 132.425C514.696 138.143 519.347 168.823 519.347 173.442C519.347 178.062 514.392 203.556 511.619 206.326C511.619 206.326 509.823 206.788 507.426 206.326C504.883 205.835 503.386 204.366 503.386 204.366C503.386 204.366 504.767 175.983 504.767 173.321C504.767 169.466 492.698 145.872 492.698 145.872C492.698 145.872 486.438 134.644 493.679 124.72Z" fill="#F99746"/>
<path d="M485.769 97.827C485.507 96.8758 484.334 96.3762 484.334 96.3762C475.575 92.5671 469.175 96.734 469.175 96.734C474.543 89.5391 487.5 91.0509 490.229 97.5412C494.686 108.137 486.534 110.343 486.534 110.343C486.534 110.343 478.395 106.929 483.108 102.648C484.67 101.23 485.426 99.9671 485.675 98.8719C485.761 98.5054 485.787 98.1564 485.769 97.827Z" fill="#C8D9E8"/>
<path d="M471.893 116.733C471.893 116.733 471.606 117.751 469.048 117.485C469.048 117.485 466.903 117.263 467.017 116.135C467.017 116.135 469.138 115.417 471.893 116.733Z" fill="white"/>
<path d="M599.822 332.92H54.2594C53.9065 332.92 53.6177 332.632 53.6177 332.279V332.008C53.6177 331.655 53.9065 331.367 54.2594 331.367H599.822C600.174 331.367 600.465 331.655 600.465 332.008V332.279C600.465 332.632 600.174 332.92 599.822 332.92Z" fill="#2E3552"/>
</g>
<defs>
<clipPath id="clip0_2067_16843">
<rect width="650" height="370.871" fill="white"/>
</clipPath>
</defs>
</svg>
